<svg width="210" height="40" viewBox="0 0 210 40" fill="none" xmlns="http://www.w3.org/2000/svg">
<g clip-path="url(#clip0_132_785)">
<path d="M128.859 30.6053C128.832 20.4038 128.853 10.2023 128.85 0.000737157C130.485 0.000737157 132.12 -0.00221435 133.755 0.00369444C133.758 10.2968 133.758 20.5929 133.764 30.8889C133.814 32.307 133.817 33.8315 134.611 35.0694C135.423 36.4048 136.948 37.2734 138.512 37.3C140.026 37.3709 141.685 37.3916 142.952 36.4255C144.348 35.4623 145.017 33.7281 144.984 32.0766C144.996 28.2359 145.035 24.3922 144.964 20.5515C144.934 18.3653 143.343 16.2351 141.125 15.8747C140.349 15.6088 139.274 15.9545 138.785 15.1213C141.575 14.5895 144.706 14.8052 147.102 16.4479C149.016 17.7567 149.919 20.1024 149.967 22.3537C150.005 24.9979 149.979 27.648 149.979 30.2951C149.979 32.2952 149.454 34.4076 148.015 35.876C146.264 37.6634 143.643 38.2808 141.208 38.2218C138.299 38.1449 135.189 38.6088 132.526 37.1434C130.109 35.9469 128.838 33.217 128.859 30.6053Z" fill="#E9E1D7"/>
<path d="M47.9932 1.12048C49.9008 0.331661 52.3238 2.21065 51.7047 4.26396C51.2485 6.31726 48.3397 7.01746 46.9327 5.50776C45.5317 4.22851 46.1419 1.61387 47.9932 1.12048Z" fill="#E9E1D7"/>
<path d="M169.132 1.13515C171.051 0.307922 173.504 2.20169 172.855 4.28158C172.396 6.4117 169.292 7.03213 167.968 5.35699C166.73 4.03342 167.39 1.64035 169.132 1.13515Z" fill="#E9E1D7"/>
<path d="M14.1215 3.69942C14.5717 2.31677 16.266 1.14683 17.6849 1.89429C18.9082 2.66835 18.3188 4.31394 17.8508 5.37457C17.4094 6.52383 15.9432 6.35838 14.9538 6.57996C14.4917 5.7025 13.8105 4.73937 14.1215 3.69942Z" fill="#E9E1D7"/>
<path d="M11.6954 7.84474C11.6954 6.7398 12.4508 5.82099 13.2683 5.15625C13.9466 6.20801 14.5361 7.4459 14.3317 8.73402C14.2784 9.18899 13.9496 9.55829 13.5586 9.77396C12.4686 9.94827 11.8258 8.75765 11.6954 7.84474Z" fill="#E9E1D7"/>
<path d="M19.0563 6.02789C19.5954 4.8609 21.3224 5.40747 21.7963 6.37356C22.6464 7.50214 21.9681 8.89366 21.3016 9.91883C20.0753 9.00888 18.849 7.67644 19.0563 6.02789Z" fill="#E9E1D7"/>
<path d="M16.2926 8.80461C18.0136 8.20487 20.1464 9.86229 19.862 11.6911C19.394 12.8905 17.9129 13.1239 16.7755 13.0826C15.7032 13.0855 14.2843 12.796 13.9259 11.6261C13.7304 10.2286 15.1433 9.24777 16.2926 8.80461Z" fill="#E9E1D7"/>
<path d="M9.92717 14.6727C9.20145 12.9444 9.67243 10.9856 9.95087 9.20117C11.272 10.1289 12.4924 11.4701 12.6582 13.1394C12.7441 14.0671 12.756 15.1277 12.1458 15.8988C11.2275 16.6758 10.3863 15.367 9.92717 14.6727Z" fill="#E9E1D7"/>
<path d="M20.6737 12.879C21.3905 11.6647 21.9 10.0871 23.3721 9.59961C24.24 11.0029 24.2104 12.8879 23.1796 14.2026C22.7501 14.7048 22.291 15.3636 21.5771 15.4375C20.5255 15.1155 20.0635 13.7949 20.6737 12.879Z" fill="#E9E1D7"/>
<path d="M15.7151 14.1608C17.1044 13.5197 18.5617 14.4769 19.5629 15.3957C20.7448 16.4091 20.4486 18.3324 19.3881 19.3192C18.5647 19.2778 17.8656 18.7667 17.0747 18.5954C16.0113 18.4417 15.2293 19.8362 14.2252 19.526C12.6375 17.8774 13.6772 14.9408 15.7151 14.1608Z" fill="#E9E1D7"/>
<path d="M24.0062 14.7377C24.4919 14.5486 24.726 15.1366 24.8178 15.5059C25.422 17.6124 24.1602 19.6981 22.7473 21.1694C22.1963 21.8489 20.7863 21.8696 20.6382 20.8445C20.6145 19.4352 21.515 18.2505 22.2289 17.1071C22.8006 16.3065 23.2212 15.3611 24.0062 14.7377Z" fill="#E9E1D7"/>
<path d="M46.4944 14.7461C48.1384 14.749 49.7794 14.749 51.4204 14.7461C51.4234 22.4777 51.4234 30.2094 51.4204 37.941C49.7794 37.941 48.1355 37.941 46.4944 37.9381C46.4974 30.2064 46.4944 22.4777 46.4944 14.7461Z" fill="#E9E1D7"/>
<path d="M167.674 14.7461C169.318 14.749 170.962 14.7431 172.606 14.752C172.677 22.4748 172.562 30.2005 172.642 37.9263C170.983 37.9499 169.327 37.941 167.671 37.941C167.677 30.2094 167.671 22.4777 167.674 14.7461Z" fill="#E9E1D7"/>
<path d="M186.587 14.7641C189.484 14.3298 192.642 14.6518 195.056 16.4393C199.384 13.6592 204.727 14.7582 209.573 14.5484C209.573 14.8025 209.57 15.3136 209.57 15.5677C207.168 15.4082 204.742 15.3757 202.358 15.7184C200.195 16.2649 198.332 18.0494 197.817 20.2356C197.476 21.4883 197.565 22.8001 197.562 24.0852C197.568 28.7236 197.565 33.362 197.562 37.9975C195.915 38.0004 194.271 38.0004 192.624 38.0004C192.624 32.3723 192.621 26.7442 192.627 21.119C192.636 19.3907 192.067 17.5146 190.595 16.4777C189.437 15.6061 187.947 15.4761 186.555 15.3698C186.561 15.2191 186.579 14.9148 186.587 14.7641Z" fill="#E9E1D7"/>
<path d="M8.76013 14.7637C10.6559 16.3472 12.3709 18.3858 13.0078 20.8084C13.5173 22.1083 11.4764 22.7051 10.8692 21.7035C9.46215 19.7123 8.14993 17.2749 8.76013 14.7637Z" fill="#E9E1D7"/>
<path d="M67.9224 14.9143C70.8549 14.5569 74.0569 14.808 76.4918 16.6338C78.8822 14.7725 82.0339 14.7105 84.9249 14.8021C87.6056 14.6839 90.4789 14.935 92.6738 16.6279C94.7621 15.0443 97.4635 14.6928 100.014 14.7991C102.908 14.7696 106.098 14.6278 108.554 16.4329C110.518 17.8037 111.362 20.2766 111.362 22.5899C111.362 27.7246 111.362 32.8593 111.362 37.9941C109.7 38.0177 108.038 38.0354 106.377 38.0532C106.371 33.0986 106.371 28.1441 106.377 23.1896C106.341 21.4967 106.548 19.6739 105.701 18.1287C104.961 16.6988 103.379 15.845 101.803 15.7209C100.467 15.6293 99.0453 15.6234 97.8279 16.2645C96.5867 16.8465 95.6774 18.0371 95.4019 19.3725C95.0553 21.1156 95.1472 22.903 95.1383 24.6697C95.1353 29.1102 95.1442 33.5536 95.1324 37.997C93.4884 38.0147 91.8415 38.0384 90.1975 38.0502C90.2004 33.0957 90.1945 28.1412 90.2004 23.1837C90.1886 21.606 90.2952 19.9516 89.6584 18.4685C88.9978 16.9381 87.4398 15.9041 85.7987 15.7386C84.0452 15.5643 82.0724 15.6529 80.698 16.8967C79.2999 18.0755 78.9711 19.99 78.9622 21.7213C78.9504 27.1455 78.9652 32.5698 78.9592 37.997C77.3212 38.0177 75.6861 38.0354 74.051 38.0561C74.0273 32.9036 74.0125 27.7512 74.0184 22.5987C74.0806 20.7847 73.9829 18.7728 72.724 17.334C71.5658 15.9513 69.6789 15.5968 67.9668 15.5436C67.955 15.387 67.9343 15.0709 67.9224 14.9143Z" fill="#E9E1D7"/>
<path d="M16.0114 20.395C16.7045 19.9548 17.6169 20.0376 18.2271 20.5812C19.018 21.2252 19.954 22.1027 19.794 23.2224C19.2579 24.286 18.4374 25.2373 17.4688 25.9316C16.2513 26.487 15.0458 25.3525 14.3645 24.4485C13.3959 22.9358 14.5926 21.0923 16.0114 20.395Z" fill="#E9E1D7"/>
<path d="M21.3965 24.2208C21.8852 23.6831 22.4895 23.2754 23.1204 22.9238C23.7188 24.8353 22.5813 26.6848 21.4468 28.1383C18.7365 31.5625 14.5125 33.1903 11.2898 36.0266C10.099 37.0311 9.39105 38.4403 8.73642 39.8171C8.6831 38.3251 8.62682 36.7031 9.50953 35.415C10.5137 33.9555 11.9029 32.8211 13.0552 31.4857C11.4349 32.0972 9.72577 33.149 7.93665 32.5463C5.47218 31.7811 4.14515 29.3851 2.88625 27.3288C2.16646 26.0703 1.21562 24.9742 0.217392 23.9342C2.09833 23.1897 4.1333 24.1322 5.81282 24.986C7.83298 26.2209 9.7465 27.7424 11.2068 29.6126C9.19258 30.2655 7.48049 28.6169 5.90168 27.6331C6.0646 28.5667 6.48522 29.4678 7.28499 30.0203C8.63275 31.075 10.4367 31.1489 12.0658 30.9184C12.6079 30.7796 13.0552 31.1252 13.5025 31.3616C16.3787 29.2669 18.9587 26.803 21.3965 24.2208Z" fill="#E9E1D7"/>
<path d="M10.7447 23.2374C12.676 23.2197 13.8401 24.9303 14.8946 26.2893C15.1997 26.703 15.5551 27.5331 14.9064 27.7961C14.0859 28.2304 13.0788 27.8286 12.4242 27.2672C11.269 26.2627 10.878 24.6999 10.7447 23.2374Z" fill="#E9E1D7"/>
<path d="M27.8983 25.964C29.3439 25.5327 30.8901 25.0777 32.4007 25.4175C32.5874 25.9404 32.1016 26.3127 31.835 26.6997C29.3972 29.5093 27.9813 33.1314 25.0843 35.557C23.8788 36.6146 22.1844 37.0401 20.6115 36.7476C18.9705 36.4403 17.1844 36.0267 16.0914 34.6529C17.0185 34.6175 17.9427 34.6647 18.8639 34.7474C21.3521 35.0104 23.9854 33.8139 25.3006 31.666C25.582 31.2258 25.5938 30.6852 25.6768 30.1888C24.4119 30.9097 23.4107 32.0442 22.0334 32.5789C20.9492 33.0871 19.7348 33.22 18.5529 33.0871C21.2217 30.2213 24.1276 27.3024 27.8983 25.964Z" fill="#E9E1D7"/>
</g>
<defs>
<clipPath id="clip0_132_785">
<rect width="210" height="40" fill="white"/>
</clipPath>
</defs>
</svg>
