<svg width="484" height="140" viewBox="0 0 484 140" fill="none" xmlns="http://www.w3.org/2000/svg">
<g clip-path="url(#clip0_132_62)">
<path d="M296.375 70.3922C296.314 46.9287 296.361 23.4652 296.355 0.00169546C300.115 0.00169546 303.876 -0.00509301 307.637 0.0084972C307.644 23.6827 307.644 47.3636 307.657 71.0445C307.773 74.3062 307.78 77.8125 309.606 80.6596C311.472 83.731 314.981 85.7288 318.578 85.7899C322.06 85.953 325.875 86.0006 328.791 83.7786C332 81.5634 333.539 77.5747 333.464 73.7762C333.492 64.9426 333.58 56.1021 333.417 47.2685C333.348 42.2401 329.69 37.3408 324.587 36.5118C322.802 35.9003 320.329 36.6953 319.205 34.7791C325.623 33.5559 332.824 34.052 338.335 37.8301C342.737 40.8403 344.814 46.2356 344.923 51.4135C345.012 57.4951 344.951 63.5903 344.951 69.6787C344.951 74.279 343.745 79.1375 340.434 82.5147C336.407 86.6257 330.378 88.0459 324.778 87.91C318.088 87.7333 310.934 88.8002 304.809 85.4298C299.25 82.6778 296.327 76.3991 296.375 70.3922Z" fill="#974338"/>
<path d="M110.384 2.57704C114.772 0.762747 120.345 5.08442 118.921 9.80703C117.872 14.5296 111.181 16.1401 107.945 12.6678C104.723 9.7255 106.126 3.71182 110.384 2.57704Z" fill="#974338"/>
<path d="M389.003 2.61102C393.418 0.708393 399.059 5.06405 397.567 9.84781C396.511 14.7471 389.371 16.1741 386.326 12.3212C383.478 9.27703 384.997 3.77299 389.003 2.61102Z" fill="#974338"/>
<path d="M32.4794 8.50915C33.5149 5.32904 37.4119 2.63818 40.6753 4.35735C43.489 6.13766 42.1332 9.92254 41.0568 12.362C40.0417 15.0053 36.6693 14.6247 34.3938 15.1344C33.331 13.1162 31.764 10.901 32.4794 8.50915Z" fill="#974338"/>
<path d="M26.8995 18.0427C26.8995 15.5014 28.6368 13.3881 30.5172 11.8592C32.0773 14.2783 33.4331 17.1254 32.963 20.0881C32.8403 21.1345 32.0841 21.9839 31.1848 22.4799C28.6777 22.8808 27.1993 20.1424 26.8995 18.0427Z" fill="#974338"/>
<path d="M43.8296 13.8637C45.0695 11.1797 49.0414 12.4368 50.1315 14.6588C52.0868 17.2545 50.5266 20.455 48.9937 22.8129C46.1732 20.72 43.3527 17.6554 43.8296 13.8637Z" fill="#974338"/>
<path d="M37.4731 20.2511C41.4314 18.8717 46.3366 22.6838 45.6826 26.89C44.6061 29.6488 41.1997 30.1856 38.5836 30.0905C36.1173 30.0972 32.854 29.4313 32.0296 26.7405C31.58 23.5264 34.8297 21.2704 37.4731 20.2511Z" fill="#974338"/>
<path d="M22.8325 33.7462C21.1633 29.771 22.2466 25.2659 22.887 21.1617C25.9255 23.2953 28.7324 26.3803 29.1139 30.2195C29.3115 32.3532 29.3388 34.7926 27.9353 36.5661C25.8233 38.3533 23.8885 35.343 22.8325 33.7462Z" fill="#974338"/>
<path d="M47.5494 29.6216C49.1981 26.8288 50.3699 23.2002 53.7559 22.079C55.7521 25.3067 55.6839 29.642 53.3131 32.6658C52.3252 33.821 51.2692 35.3363 49.6273 35.5062C47.2088 34.7655 46.1459 31.7281 47.5494 29.6216Z" fill="#974338"/>
<path d="M36.1448 32.5706C39.34 31.0961 42.6919 33.2977 44.9947 35.411C47.713 37.7417 47.0317 42.1653 44.5927 44.4349C42.6987 44.3398 41.0909 43.1642 39.2719 42.7701C36.8261 42.4168 35.0275 45.624 32.7179 44.9106C29.0662 41.1189 31.4575 34.3645 36.1448 32.5706Z" fill="#974338"/>
<path d="M55.2141 33.8957C56.3314 33.4608 56.8697 34.813 57.0809 35.6624C58.4707 40.5073 55.5684 45.3047 52.3187 48.6886C51.0515 50.2515 47.8086 50.2991 47.4679 47.9412C47.4134 44.6999 49.4845 41.9751 51.1264 39.3454C52.4413 37.5039 53.4087 35.3295 55.2141 33.8957Z" fill="#974338"/>
<path d="M106.937 33.9161C110.718 33.9229 114.493 33.9229 118.267 33.9161C118.274 51.6989 118.274 69.4817 118.267 87.2645C114.493 87.2645 110.712 87.2645 106.937 87.2577C106.944 69.4749 106.937 51.6989 106.937 33.9161Z" fill="#974338"/>
<path d="M385.651 33.9161C389.432 33.9229 393.213 33.9093 396.994 33.9297C397.158 51.6921 396.892 69.4613 397.076 87.2305C393.261 87.2849 389.452 87.2645 385.644 87.2645C385.658 69.4817 385.644 51.6989 385.651 33.9161Z" fill="#974338"/>
<path d="M429.151 33.9569C435.814 32.958 443.076 33.6987 448.629 37.8097C458.583 31.4155 470.873 33.9433 482.019 33.4608C482.019 34.0452 482.012 35.2208 482.012 35.8051C476.487 35.4382 470.907 35.3635 465.423 36.1517C460.449 37.4088 456.164 41.513 454.979 46.5414C454.195 49.4225 454.399 52.4396 454.393 55.3954C454.406 66.0637 454.399 76.7321 454.393 87.3936C450.605 87.4004 446.824 87.4004 443.036 87.4004C443.036 74.4557 443.029 61.511 443.042 48.5731C443.063 44.598 441.755 40.2831 438.369 37.898C435.705 35.8935 432.278 35.5945 429.076 35.3499C429.09 35.0033 429.131 34.3034 429.151 33.9569Z" fill="#974338"/>
<path d="M20.1483 33.9568C24.5085 37.599 28.4531 42.2876 29.9179 47.8596C31.0897 50.8494 26.3956 52.2221 24.999 49.9185C21.7629 45.3386 18.7448 39.7327 20.1483 33.9568Z" fill="#974338"/>
<path d="M156.222 34.3034C162.966 33.4812 170.331 34.0588 175.931 38.2582C181.429 33.9773 188.678 33.8346 195.327 34.0452C201.493 33.7734 208.101 34.351 213.15 38.2446C217.953 34.6024 224.166 33.7938 230.032 34.0384C236.688 33.9705 244.026 33.6443 249.673 37.7961C254.19 40.949 256.132 46.6365 256.132 51.9571C256.132 63.767 256.132 75.5769 256.132 87.3868C252.31 87.4412 248.488 87.4819 244.666 87.5227C244.652 76.1273 244.652 64.7319 244.666 53.3365C244.584 49.4429 245.061 45.2503 243.113 41.6965C241.409 38.4077 237.771 36.4439 234.147 36.1585C231.074 35.9478 227.804 35.9343 225.004 37.4088C222.15 38.7474 220.058 41.4859 219.424 44.5573C218.627 48.5664 218.839 52.6774 218.818 56.7409C218.811 66.9539 218.832 77.1738 218.804 87.3936C215.023 87.4344 211.235 87.4888 207.454 87.5159C207.461 76.1205 207.447 64.7251 207.461 53.3229C207.434 49.6944 207.679 45.8891 206.214 42.478C204.695 38.9581 201.111 36.5798 197.337 36.1993C193.304 35.7983 188.767 36.0022 185.605 38.863C182.39 41.5742 181.634 45.9774 181.613 49.9594C181.586 62.4352 181.62 74.911 181.606 87.3936C177.839 87.4412 174.078 87.4819 170.317 87.5295C170.263 75.6788 170.229 63.8282 170.242 51.9775C170.385 47.8053 170.161 43.1779 167.265 39.8686C164.601 36.6885 160.262 35.8731 156.324 35.7508C156.296 35.3906 156.249 34.6636 156.222 34.3034Z" fill="#974338"/>
<path d="M36.8262 46.9083C38.4204 45.8959 40.5188 46.0861 41.9222 47.3364C43.7413 48.8178 45.8941 50.8359 45.5262 53.4113C44.2931 55.8575 42.4059 58.0455 40.1781 59.6424C37.3781 60.9199 34.6052 58.3105 33.0383 56.2312C30.8105 52.7521 33.5629 48.512 36.8262 46.9083Z" fill="#974338"/>
<path d="M49.2119 55.708C50.336 54.4713 51.7258 53.5336 53.177 52.7249C54.5532 57.1214 51.937 61.3751 49.3277 64.7183C43.094 72.5938 33.3788 76.3379 25.9664 82.8613C23.2277 85.1716 21.5994 88.4128 20.0938 91.5794C19.9711 88.1478 19.8417 84.4173 21.8719 81.4547C24.1815 78.0979 27.3767 75.4886 30.0269 72.4172C26.3003 73.8238 22.3693 76.2428 18.2543 74.8566C12.586 73.0967 9.53384 67.5858 6.63838 62.8565C4.98285 59.9617 2.79593 57.4408 0.5 55.0489C4.82616 53.3365 9.50659 55.5042 13.3695 57.4679C18.0158 60.3083 22.4169 63.8078 25.7757 68.1091C21.1429 69.6108 17.2051 65.8191 13.5739 63.5563C13.9486 65.7036 14.916 67.7761 16.7555 69.0468C19.8553 71.4726 24.0043 71.6425 27.7514 71.1125C28.9982 70.7931 30.0269 71.5882 31.0556 72.1318C37.6709 67.314 43.6049 61.6469 49.2119 55.708Z" fill="#974338"/>
<path d="M24.7127 53.4452C29.1547 53.4045 31.8321 57.3388 34.2575 60.4646C34.9592 61.4159 35.7768 63.3253 34.2848 63.9301C32.3976 64.929 30.0812 64.0048 28.5756 62.7138C25.9186 60.4034 25.0193 56.8088 24.7127 53.4452Z" fill="#974338"/>
<path d="M64.1662 59.7171C67.4908 58.725 71.0472 57.6786 74.5217 58.46C74.9509 59.6627 73.8336 60.5189 73.2205 61.4091C67.6135 67.8712 64.3569 76.202 57.694 81.7808C54.9211 84.2135 51.0242 85.192 47.4065 84.5193C43.6322 83.8126 39.5241 82.8613 37.0101 79.7015C39.1426 79.62 41.2682 79.7287 43.387 79.919C49.1098 80.5237 55.1664 77.7717 58.1913 72.8317C58.8385 71.8192 58.8658 70.5757 59.0565 69.4341C56.1474 71.0921 53.8447 73.7014 50.6767 74.9314C48.1832 76.1001 45.3899 76.4059 42.6716 76.1001C48.81 69.5089 55.4934 62.7953 64.1662 59.7171Z" fill="#974338"/>
<path d="M16.8848 118.107C21.9945 118.114 27.1041 118.101 32.2069 118.114C32.1933 118.787 32.1729 119.467 32.1592 120.153C29.9519 120.146 27.7513 120.146 25.544 120.153C25.544 126.615 25.5371 133.077 25.544 139.539C25.0126 139.539 23.9429 139.539 23.4115 139.539C23.4115 133.077 23.4047 126.608 23.4115 120.146C21.245 120.146 19.0786 120.146 16.9121 120.146C16.9053 119.636 16.8916 118.617 16.8848 118.107Z" fill="#974338"/>
<path d="M47.5564 118.101C48.0878 118.101 49.137 118.107 49.6684 118.107C49.6684 121.26 49.6684 124.413 49.6752 127.566C53.5721 127.566 57.4623 127.566 61.3592 127.566C61.3592 124.413 61.3592 121.26 61.3592 118.107C62.0814 118.101 62.7968 118.101 63.5257 118.107C63.5121 125.249 63.5121 132.391 63.5257 139.539C62.7968 139.532 62.0746 139.532 61.3592 139.532C61.3592 136.21 61.3592 132.887 61.3592 129.564C57.4623 129.571 53.5653 129.571 49.6684 129.571C49.6684 132.887 49.6684 136.21 49.6684 139.532C49.1438 139.539 48.0878 139.546 47.5632 139.553C47.5564 132.398 47.5564 125.249 47.5564 118.101Z" fill="#974338"/>
<path d="M86.7916 118.121C87.5206 118.107 88.2563 118.101 88.9921 118.101C91.7786 125.249 94.5514 132.411 97.2629 139.594C96.4794 139.539 95.696 139.485 94.9193 139.444C94.2993 137.732 93.6726 136.026 93.0594 134.321C89.6462 134.273 86.2397 134.293 82.8265 134.293C82.1656 136.033 81.498 137.772 80.8371 139.512C80.2649 139.519 79.1271 139.546 78.5616 139.56C81.2936 132.404 84.0937 125.283 86.7916 118.121ZM83.5759 132.275C86.4714 132.282 89.36 132.282 92.2487 132.282C90.8043 128.49 89.4281 124.685 87.9293 120.921C86.3828 124.665 85.0475 128.497 83.5759 132.275Z" fill="#974338"/>
<path d="M112.34 118.094C113.055 118.101 113.777 118.114 114.493 118.135C114.472 125.27 114.486 132.398 114.486 139.526C113.948 139.533 112.871 139.539 112.333 139.546C112.34 132.391 112.326 125.242 112.34 118.094Z" fill="#974338"/>
<path d="M154.852 118.345C158.756 116.551 163.409 118.678 165.153 122.456C164.71 122.653 163.811 123.048 163.361 123.245C161.992 120.846 159.308 119.106 156.473 119.976C153.932 120.302 152.447 123.679 154.246 125.623C157.243 127.954 161.529 127.879 164.356 130.509C166.543 132.86 165.848 137.127 163.062 138.724C158.688 141.428 152.297 139.662 150.281 134.844C150.846 134.443 151.412 134.056 151.977 133.668C153.299 136.42 156.072 138.404 159.246 137.847C162.183 137.99 164.901 134.463 162.803 131.935C159.819 129.34 155.22 129.578 152.386 126.73C150.178 123.999 151.575 119.521 154.852 118.345Z" fill="#974338"/>
<path d="M181.477 118.094C184.781 118.237 188.154 117.768 191.417 118.461C196.002 119.793 197.426 126.309 194.06 129.571C191.383 132.445 187.077 131.419 183.589 131.609C183.582 134.253 183.582 136.896 183.596 139.539C183.058 139.539 181.988 139.539 181.45 139.539C181.463 132.391 181.416 125.242 181.477 118.094ZM183.589 120.146C183.582 123.299 183.582 126.445 183.589 129.598C186.076 129.523 188.651 129.917 191.07 129.197C194.626 127.804 194.639 122.103 191.192 120.574C188.753 119.765 186.11 120.248 183.589 120.146Z" fill="#974338"/>
<path d="M215.834 118.107C216.563 118.107 217.298 118.107 218.034 118.121C220.787 125.263 223.573 132.391 226.278 139.553C225.712 139.546 224.575 139.526 224.009 139.512C223.348 137.773 222.701 136.026 222.047 134.293C218.641 134.293 215.234 134.28 211.835 134.314C211.174 136.047 210.513 137.773 209.866 139.505C209.096 139.519 208.333 139.532 207.577 139.56C210.343 132.411 213.095 125.263 215.834 118.107ZM216.924 120.968C215.398 124.706 214.076 128.518 212.591 132.275C215.479 132.282 218.368 132.282 221.257 132.275C219.853 128.49 218.484 124.692 216.924 120.968Z" fill="#974338"/>
<path d="M261.33 118.128C264.601 118.209 267.925 117.802 271.155 118.427C275.855 119.698 277.313 126.398 273.825 129.659C271.134 132.418 266.937 131.433 263.49 131.596C263.49 134.239 263.483 136.882 263.49 139.526C262.945 139.526 261.869 139.526 261.324 139.526C261.33 132.391 261.324 125.256 261.33 118.128ZM263.49 120.139C263.483 123.292 263.49 126.445 263.49 129.598C265.909 129.544 268.389 129.87 270.759 129.258C274.459 127.967 274.527 122.015 270.957 120.527C268.545 119.813 265.97 120.221 263.49 120.139Z" fill="#974338"/>
<path d="M291.729 118.121C292.437 118.107 293.146 118.101 293.854 118.101C293.868 124.576 293.861 131.052 293.861 137.535C297.165 137.521 300.47 137.501 303.781 137.596C303.774 138.078 303.753 139.043 303.747 139.519C299.741 139.539 295.735 139.532 291.736 139.539C291.736 132.398 291.736 125.263 291.729 118.121Z" fill="#974338"/>
<path d="M325.82 118.094C326.543 118.108 327.265 118.121 328.001 118.142C330.76 125.263 333.478 132.398 336.258 139.519C335.495 139.519 334.732 139.526 333.976 139.539C331.632 133.329 329.309 127.118 326.931 120.928C324.424 127.057 322.182 133.288 319.852 139.485C319.267 139.505 318.102 139.539 317.516 139.56C320.309 132.411 323.027 125.236 325.82 118.094Z" fill="#974338"/>
<path d="M347.962 118.107C353.065 118.121 358.168 118.107 363.278 118.121C363.264 118.624 363.25 119.636 363.244 120.139C361.057 120.139 358.87 120.139 356.69 120.146C356.683 126.608 356.69 133.077 356.683 139.546C356.145 139.539 355.068 139.526 354.523 139.519C354.537 133.057 354.523 126.601 354.53 120.139C352.343 120.139 350.156 120.139 347.969 120.139C347.969 119.63 347.962 118.617 347.962 118.107Z" fill="#974338"/>
<path d="M378.682 118.08C379.383 118.101 380.092 118.128 380.807 118.162C380.794 125.276 380.8 132.398 380.807 139.512C380.276 139.519 379.213 139.539 378.682 139.553C378.675 132.391 378.668 125.236 378.682 118.08Z" fill="#974338"/>
<path d="M397.982 118.087C398.609 118.108 399.249 118.135 399.89 118.169C403.834 123.992 407.82 129.781 411.826 135.571C411.846 129.748 411.826 123.931 411.833 118.121C412.364 118.114 413.42 118.101 413.951 118.101C413.951 125.256 413.965 132.418 413.945 139.573C413.481 139.56 412.548 139.519 412.085 139.498C408.092 133.723 404.168 127.899 400.142 122.144C400.094 127.94 400.121 133.743 400.121 139.546C399.399 139.532 398.684 139.526 397.975 139.526C397.982 132.377 397.975 125.236 397.982 118.087Z" fill="#974338"/>
<path d="M430.847 118.135C431.542 118.114 432.251 118.101 432.966 118.087C433 122.565 432.925 127.036 432.973 131.514C432.987 133.478 433.334 135.775 435.18 136.889C438.198 138.853 443.635 138.01 444.439 134.022C445.086 128.749 444.568 123.401 444.739 118.101C445.263 118.107 446.313 118.121 446.837 118.128C446.755 123.265 447.028 128.416 446.728 133.546C446.51 136.78 443.683 139.349 440.556 139.804C436.407 140.762 431.297 138.126 430.963 133.594C430.663 128.45 430.943 123.285 430.847 118.135Z" fill="#974338"/>
<path d="M463.679 118.128C464.571 118.114 465.47 118.107 466.377 118.101C468.761 122.083 471.139 126.065 473.53 130.04C475.942 126.112 478.306 122.151 480.643 118.175C481.583 118.135 482.523 118.101 483.484 118.074C483.511 125.236 483.497 132.391 483.49 139.546C482.925 139.539 481.787 139.532 481.222 139.526C481.215 133.492 481.249 127.458 481.201 121.424C478.633 125.643 476.153 129.904 473.564 134.103C470.934 129.931 468.475 125.65 465.906 121.437C465.859 127.464 465.893 133.498 465.886 139.526C465.334 139.526 464.231 139.519 463.672 139.519C463.679 132.384 463.672 125.256 463.679 118.128Z" fill="#974338"/>
</g>
<defs>
<clipPath id="clip0_132_62">
<rect width="483" height="140" fill="white" transform="translate(0.5)"/>
</clipPath>
</defs>
</svg>
